<svg width="18" height="18" viewBox="0 0 18 18" fill="none" xmlns="http://www.w3.org/2000/svg">
<path d="M9.0004 1.5C7.54576 1.50276 6.12332 1.92848 4.90632 2.7253C3.68933 3.52212 2.73032 4.65566 2.14611 5.98783C1.56189 7.32 1.37768 8.79331 1.61592 10.2283C1.85416 11.6633 2.50456 12.9981 3.4879 14.07C4.19022 14.8313 5.04261 15.4389 5.99136 15.8544C6.9401 16.27 7.96464 16.4845 9.0004 16.4845C10.0362 16.4845 11.0607 16.27 12.0094 15.8544C12.9582 15.4389 13.8106 14.8313 14.5129 14.07C15.4962 12.9981 16.1466 11.6633 16.3849 10.2283C16.6231 8.79331 16.4389 7.32 15.8547 5.98783C15.2705 4.65566 14.3115 3.52212 13.0945 2.7253C11.8775 1.92848 10.455 1.50276 9.0004 1.5ZM9.0004 15C7.44675 14.9976 5.95459 14.3927 4.8379 13.3125C5.17694 12.4872 5.75368 11.7812 6.49484 11.2844C7.23601 10.7876 8.10813 10.5224 9.0004 10.5224C9.89267 10.5224 10.7648 10.7876 11.506 11.2844C12.2471 11.7812 12.8239 12.4872 13.1629 13.3125C12.0462 14.3927 10.5541 14.9976 9.0004 15ZM7.5004 7.5C7.5004 7.20333 7.58838 6.91332 7.7532 6.66665C7.91802 6.41997 8.15229 6.22771 8.42638 6.11418C8.70047 6.00065 9.00207 5.97094 9.29304 6.02882C9.58401 6.0867 9.85128 6.22956 10.0611 6.43934C10.2708 6.64912 10.4137 6.91639 10.4716 7.20737C10.5295 7.49834 10.4998 7.79994 10.3862 8.07403C10.2727 8.34811 10.0804 8.58238 9.83376 8.7472C9.58708 8.91203 9.29707 9 9.0004 9C8.60258 9 8.22105 8.84197 7.93974 8.56066C7.65844 8.27936 7.5004 7.89783 7.5004 7.5ZM14.1829 12C13.5128 10.8538 12.4815 9.96227 11.2504 9.465C11.6323 9.03199 11.8811 8.49799 11.967 7.92708C12.0529 7.35616 11.9723 6.77258 11.7347 6.24637C11.4972 5.72016 11.1128 5.27367 10.6278 4.96047C10.1428 4.64728 9.57775 4.48069 9.0004 4.48069C8.42306 4.48069 7.85798 4.64728 7.37297 4.96047C6.88796 5.27367 6.50363 5.72016 6.26609 6.24637C6.02855 6.77258 5.94789 7.35616 6.0338 7.92708C6.11971 8.49799 6.36853 9.03199 6.7504 9.465C5.51935 9.96227 4.488 10.8538 3.8179 12C3.28386 11.0903 3.00169 10.0548 3.0004 9C3.0004 7.4087 3.63254 5.88258 4.75776 4.75736C5.88298 3.63214 7.4091 3 9.0004 3C10.5917 3 12.1178 3.63214 13.243 4.75736C14.3683 5.88258 15.0004 7.4087 15.0004 9C14.9991 10.0548 14.7169 11.0903 14.1829 12Z" fill="#282828"/>
</svg>
