<svg width="16" height="16" viewBox="0 0 16 16" fill="none" xmlns="http://www.w3.org/2000/svg">
<path d="M14.8025 11.6224L13.25 10.0324C12.916 9.71496 12.4948 9.50463 12.0404 9.42845C11.586 9.35227 11.1192 9.41372 10.7 9.6049L10.025 8.9299C10.8204 7.86708 11.1837 6.5424 11.0416 5.22252C10.8996 3.90264 10.2629 2.68556 9.25957 1.81629C8.25626 0.947026 6.96089 0.490113 5.63424 0.537533C4.30759 0.584954 3.04815 1.13319 2.10947 2.07187C1.17079 3.01056 0.622552 4.26999 0.575131 5.59664C0.52771 6.9233 0.984624 8.21866 1.85389 9.22197C2.72316 10.2253 3.94024 10.862 5.26012 11.0041C6.58 11.1461 7.90468 10.7828 8.96749 9.9874L9.63499 10.6549C9.42131 11.0746 9.34473 11.5508 9.41604 12.0164C9.48736 12.4819 9.70297 12.9134 10.0325 13.2499L11.6225 14.8399C12.0444 15.2612 12.6162 15.4979 13.2125 15.4979C13.8087 15.4979 14.3806 15.2612 14.8025 14.8399C15.0168 14.6304 15.1871 14.3801 15.3033 14.1038C15.4196 13.8276 15.4795 13.5309 15.4795 13.2311C15.4795 12.9314 15.4196 12.6347 15.3033 12.3585C15.1871 12.0822 15.0168 11.8319 14.8025 11.6224ZM8.44249 8.4424C7.91767 8.96589 7.24947 9.32211 6.5223 9.46603C5.79513 9.60996 5.04161 9.53514 4.35694 9.25104C3.67227 8.96693 3.08716 8.48628 2.67553 7.8698C2.26389 7.25332 2.0442 6.52867 2.0442 5.7874C2.0442 5.04612 2.26389 4.32147 2.67553 3.70499C3.08716 3.08851 3.67227 2.60786 4.35694 2.32375C5.04161 2.03965 5.79513 1.96483 6.5223 2.10876C7.24947 2.25268 7.91767 2.6089 8.44249 3.1324C8.79172 3.48074 9.06879 3.89455 9.25784 4.35014C9.44689 4.80573 9.5442 5.29414 9.5442 5.7874C9.5442 6.28065 9.44689 6.76906 9.25784 7.22465C9.06879 7.68024 8.79172 8.09405 8.44249 8.4424ZM13.745 13.7449C13.6753 13.8152 13.5923 13.871 13.5009 13.9091C13.4095 13.9471 13.3115 13.9667 13.2125 13.9667C13.1135 13.9667 13.0155 13.9471 12.9241 13.9091C12.8327 13.871 12.7497 13.8152 12.68 13.7449L11.09 12.1549C11.0197 12.0852 10.9639 12.0022 10.9258 11.9108C10.8877 11.8194 10.8681 11.7214 10.8681 11.6224C10.8681 11.5234 10.8877 11.4254 10.9258 11.334C10.9639 11.2426 11.0197 11.1596 11.09 11.0899C11.1597 11.0196 11.2427 10.9638 11.3341 10.9257C11.4255 10.8877 11.5235 10.868 11.6225 10.868C11.7215 10.868 11.8195 10.8877 11.9109 10.9257C12.0023 10.9638 12.0853 11.0196 12.155 11.0899L13.745 12.6799C13.8153 12.7496 13.8711 12.8326 13.9092 12.924C13.9472 13.0154 13.9668 13.1134 13.9668 13.2124C13.9668 13.3114 13.9472 13.4094 13.9092 13.5008C13.8711 13.5922 13.8153 13.6752 13.745 13.7449Z" fill="#1A1A1A"/>
</svg>
