<svg width="30" height="30" viewBox="0 0 30 30" fill="none" xmlns="http://www.w3.org/2000/svg">
<path d="M15 16.2497C14.6194 16.2452 14.2466 16.3575 13.9318 16.5713C13.617 16.7851 13.3752 17.0903 13.239 17.4457C13.1028 17.8011 13.0788 18.1896 13.1702 18.5591C13.2615 18.9286 13.4639 19.2612 13.75 19.5122V21.2497C13.75 21.5812 13.8817 21.8991 14.1161 22.1335C14.3505 22.368 14.6685 22.4997 15 22.4997C15.3315 22.4997 15.6495 22.368 15.8839 22.1335C16.1183 21.8991 16.25 21.5812 16.25 21.2497V19.5122C16.5361 19.2612 16.7385 18.9286 16.8298 18.5591C16.9212 18.1896 16.8972 17.8011 16.761 17.4457C16.6248 17.0903 16.383 16.7851 16.0682 16.5713C15.7534 16.3575 15.3806 16.2452 15 16.2497ZM21.25 11.2497H11.25V8.74966C11.2482 8.00739 11.4667 7.28128 11.8778 6.66329C12.289 6.04529 12.8743 5.56321 13.5596 5.27811C14.2449 4.993 14.9995 4.91769 15.7276 5.06171C16.4558 5.20574 17.1248 5.56262 17.65 6.08716C18.1199 6.56724 18.4561 7.16194 18.625 7.81216C18.666 7.97138 18.738 8.12097 18.8369 8.25237C18.9357 8.38377 19.0595 8.49442 19.2011 8.57799C19.3427 8.66157 19.4994 8.71643 19.6622 8.73945C19.825 8.76247 19.9908 8.75319 20.15 8.71216C20.3092 8.67112 20.4588 8.59912 20.5902 8.50027C20.7216 8.40142 20.8323 8.27766 20.9158 8.13605C20.9994 7.99444 21.0543 7.83776 21.0773 7.67495C21.1003 7.51214 21.091 7.34638 21.05 7.18716C20.7652 6.10566 20.2004 5.11832 19.4125 4.32466C18.5377 3.45261 17.4242 2.85933 16.2124 2.61971C15.0007 2.38009 13.7452 2.50489 12.6043 2.97835C11.4635 3.45181 10.4885 4.25269 9.80251 5.27987C9.11651 6.30705 8.75026 7.51447 8.75 8.74966V11.2497C7.75544 11.2497 6.80161 11.6447 6.09835 12.348C5.39509 13.0513 5 14.0051 5 14.9997V23.7497C5 24.7442 5.39509 25.698 6.09835 26.4013C6.80161 27.1046 7.75544 27.4997 8.75 27.4997H21.25C22.2446 27.4997 23.1984 27.1046 23.9017 26.4013C24.6049 25.698 25 24.7442 25 23.7497V14.9997C25 14.0051 24.6049 13.0513 23.9017 12.348C23.1984 11.6447 22.2446 11.2497 21.25 11.2497ZM22.5 23.7497C22.5 24.0812 22.3683 24.3991 22.1339 24.6335C21.8995 24.868 21.5815 24.9997 21.25 24.9997H8.75C8.41848 24.9997 8.10054 24.868 7.86612 24.6335C7.6317 24.3991 7.5 24.0812 7.5 23.7497V14.9997C7.5 14.6681 7.6317 14.3502 7.86612 14.1158C8.10054 13.8814 8.41848 13.7497 8.75 13.7497H21.25C21.5815 13.7497 21.8995 13.8814 22.1339 14.1158C22.3683 14.3502 22.5 14.6681 22.5 14.9997V23.7497Z" fill="url(#paint0_linear_2234_55)"/>
<defs>
<linearGradient id="paint0_linear_2234_55" x1="6.84669" y1="30.0995" x2="31.7621" y2="11.6162" gradientUnits="userSpaceOnUse">
<stop stop-color="#E3B661"/>
<stop offset="0.672939" stop-color="#FDD892"/>
<stop offset="1" stop-color="#FFE8BD"/>
</linearGradient>
</defs>
</svg>
